Coordinates
nRows=11
nColumns=24

# SIMM Motion File Header:
name Coordinates
datacolumns 24
datarows 11
otherdata 1
range 0.66200000000000003000 0.67200000000000004000
endheader
time	pelvis_tx	pelvis_ty	pelvis_tz	pelvis_tilt	pelvis_list	pelvis_rotation	hip_flexion_r	hip_adduction_r	hip_rotation_r	knee_angle_r	ankle_angle_r	subtalar_angle_r	mtp_angle_r	hip_flexion_l	hip_adduction_l	hip_rotation_l	knee_angle_l	ankle_angle_l	subtalar_angle_l	mtp_angle_l	lumbar_extension	lumbar_bending	lumbar_rotation
      0.66200000000000003000	      0.69650397359644134000	      0.81866895711951226000	     -0.25935674803477365000	     -3.55226215628330790000	     -3.54794160324409760000	      0.25166754432566596000	     28.13171309100522800000	      5.81341790231490220000	      8.26559463649561540000	    -19.58833746137572300000	     -6.01039327791344390000	     -0.00000000000001864279	      0.00000000000009711582	     -5.61221677055122910000	     -4.65905547219776570000	     -4.80046927602416320000	    -34.72560371285865000000	    -13.71936518901380200000	     -0.00000000000004307777	      0.00000000000013992687	      9.30440759417852800000	      0.07078919977183006900	      7.26540543516342650000
      0.66300000000000003000	      0.69770510514836614000	      0.81880600194691877000	     -0.25911380044792448000	     -3.50566848758216000000	     -3.58665080546891170000	      0.21424868729861177000	     28.00782729116484400000	      5.89854707092850190000	      8.34292321636259260000	    -19.60767967108531100000	     -5.91985858136160740000	     -0.00000000000001868535	      0.00000000000009744261	     -5.52699711401474940000	     -4.76141556948864770000	     -4.81452179023405340000	    -35.02917049626766800000	    -14.00144763890306100000	     -0.00000000000004304972	      0.00000000000013944702	      9.26245238714951570000	      0.10025031341872111000	      7.32134916572636120000
      0.66400000000000003000	      0.69890441088490396000	      0.81894212298338165000	     -0.25887153841279947000	     -3.45940984110094620000	     -3.62522516571770930000	      0.17696854521880476000	     27.88378578526339900000	      5.98332074360240540000	      8.42005713146054010000	    -19.62599589928878500000	     -5.83000054660124700000	     -0.00000000000001872361	      0.00000000000009775762	     -5.44068175716972570000	     -4.86359026356607680000	     -4.82828617727891630000	    -35.33326090417136100000	    -14.28206225770285800000	     -0.00000000000004302048	      0.00000000000013895722	      9.22071316100099380000	      0.12952880951301202000	      7.37721002670769280000
      0.66500000000000004000	      0.70009823917528080000	      0.81907547264701397000	     -0.25863133303284686000	     -3.41415626127953110000	     -3.66339500003845850000	      0.14010454798073793000	     27.75927716117875800000	      6.06702792845722260000	      8.49660705225139520000	    -19.64123418297394600000	     -5.74217249721531160000	     -0.00000000000001874895	      0.00000000000009803727	     -5.35107929939907570000	     -4.96520874800314790000	     -4.84118618282870280000	    -35.63892218555907500000	    -14.55827338323428100000	     -0.00000000000004298771	      0.00000000000013843758	      9.17962187749394330000	      0.15825945294950433000	      7.43282227894421600000
      0.66600000000000004000	      0.70128834751649849000	      0.81920683271086658000	     -0.25839272862105739000	     -3.36967035494490300000	     -3.70127554095866620000	      0.10362157648084851000	     27.63456278105325100000	      6.14992577191710410000	      8.57254546033849610000	    -19.65440495284325500000	     -5.65555809306200710000	     -0.00000000000001877221	      0.00000000000009831335	     -5.25916623546274660000	     -5.06639793451676910000	     -4.85336847611896170000	    -35.94554042108138200000	    -14.83144337501701100000	     -0.00000000000004296022	      0.00000000000013792392	      9.13906895928772480000	      0.18660072045933720000	      7.48815212039791870000
      0.66700000000000004000	      0.70247473590855725000	      0.81933620317493927000	     -0.25815572517743107000	     -3.32595212209706360000	     -3.73886678847833180000	      0.06751963071913688600	     27.50964264488688100000	      6.23201427398204900000	      8.64787235572184620000	    -19.66550820889671400000	     -5.57015733414133600000	     -0.00000000000001879340	      0.00000000000009858586	     -5.16494256536073500000	     -5.16715782310694130000	     -4.86483305714969210000	    -36.25311561073827700000	    -15.10157223305104400000	     -0.00000000000004293803	      0.00000000000013741624	      9.09905440638234350000	      0.21455261204251022000	      7.54319955106880260000
      0.66800000000000004000	      0.70366112430061600000	      0.81946557363901207000	     -0.25791872173380476000	     -3.28223388924922380000	     -3.77645803599799730000	      0.03141768495742526500	     27.38472250872051100000	      6.31410277604699390000	      8.72319925110519460000	    -19.67661146495017400000	     -5.48475657522066480000	     -0.00000000000001881458	      0.00000000000009885837	     -5.07071889525872340000	     -5.26791771169711250000	     -4.87629763818042240000	    -36.56069080039517900000	    -15.37170109108507900000	     -0.00000000000004291584	      0.00000000000013690855	      9.05903985347696050000	      0.24250450362568324000	      7.59824698173968560000
      0.66900000000000004000	      0.70483851904944650000	      0.81958977283967260000	     -0.25768610456225888000	     -3.24063193971491130000	     -3.81331140467516860000	     -0.00350154295593515730	     27.25968062549585700000	      6.39402797020652790000	      8.79662103963979720000	    -19.68288994642606600000	     -5.40135784063202350000	     -0.00000000000001883915	      0.00000000000009913432	     -4.97057986326350590000	     -5.36753302960851020000	     -4.88581486807132230000	    -36.87062136902139300000	    -15.63329129191057000000	     -0.00000000000004287893	      0.00000000000013628935	      9.02062650151725090000	      0.26946414913395650000	      7.65231528466730020000
      0.67000000000000004000	      0.70601591379827688000	      0.81971397204033325000	     -0.25745348739071305000	     -3.19902999018059870000	     -3.85016477335233940000	     -0.03842077086929558000	     27.13463874227120300000	      6.47395316436606110000	      8.87004282817439990000	    -19.68916842790195800000	     -5.31795910604338310000	     -0.00000000000001886372	      0.00000000000009941027	     -4.87044083126828830000	     -5.46714834751990870000	     -4.89533209796222120000	    -37.18055193764761400000	    -15.89488149273606200000	     -0.00000000000004284202	      0.00000000000013567014	      8.98221314955754120000	      0.29642379464222979000	      7.70638358759491560000
      0.67100000000000004000	      0.70718872407975786000	      0.81983546290663001000	     -0.25722332998337738000	     -3.15855097013088760000	     -3.88659711470121040000	     -0.07263565496129442700	     27.00962842975099000000	      6.55267007849461170000	      8.94234943525005480000	    -19.69310863782821400000	     -5.23481898873148490000	     -0.00000000000001888565	      0.00000000000009964809	     -4.76723282891965900000	     -5.56610144072456770000	     -4.90384292007828910000	    -37.49166878562128600000	    -16.15124762776213200000	     -0.00000000000004279827	      0.00000000000013501514	      8.94466429661462930000	      0.32283022630840863000	      7.75984491993703430000
      0.67200000000000004000	      0.70835694989388920000	      0.81995424543856310000	     -0.25699563234025202000	     -3.11919487956577600000	     -3.92260842872178190000	     -0.10614619523193247000	     26.88464968793521200000	      6.63017871259217980000	      9.01354086086676180000	    -19.69471057620483000000	     -5.15193748869633070000	     -0.00000000000001890495	      0.00000000000009984779	     -4.66095585621762080000	     -5.66439230922248970000	     -4.91134733441952780000	    -37.80397191294242300000	    -16.40238969698878800000	     -0.00000000000004274767	      0.00000000000013432433	      8.90797994268851310000	      0.34868344413249353000	      7.81269928169365710000
